<svg width="200" height="191" viewBox="0 0 200 191" xmlns="http://www.w3.org/2000/svg"><title>down-arrow</title><path d="M199.73 90.632c0 4.53-1.582 8.375-4.744 11.538l-83.456 83.583c-3.333 3.163-7.221 4.744-11.665 4.744-4.53 0-8.376-1.581-11.538-4.744L4.871 102.17C1.624 99.093 0 95.247 0 90.632c0-4.53 1.624-8.418 4.871-11.666l9.487-9.615c3.333-3.162 7.222-4.743 11.666-4.743 4.53 0 8.375 1.581 11.537 4.743l37.69 37.69v-90.25c0-4.444 1.624-8.29 4.871-11.538C83.37 2.006 87.216.382 91.66.382h16.41c4.443 0 8.29 1.624 11.537 4.871 3.247 3.248 4.871 7.094 4.871 11.538v90.25l37.69-37.69c3.162-3.162 7.008-4.743 11.538-4.743 4.444 0 8.332 1.581 11.665 4.743l9.615 9.615c3.162 3.333 4.743 7.222 4.743 11.666z" fill="#FC2B2B" fill-rule="evenodd"/></svg>