<svg width="39" height="39" viewBox="0 0 39 39" fill="none" xmlns="http://www.w3.org/2000/svg">
<ellipse cx="18.7169" cy="19.3312" rx="18.7169" ry="18.8715" fill="#68ADEC"/>
<path d="M24.124 17.9211C24.124 14.3692 20.4006 11.4923 15.8053 11.4923C11.2101 11.4923 7.48669 14.3692 7.48669 17.9211C7.48669 19.2992 8.0506 20.5689 9.00645 21.6176C8.47053 22.831 7.58668 23.7953 7.57468 23.8074C7.48669 23.8998 7.4627 24.0364 7.51469 24.1569C7.56668 24.2775 7.67866 24.3498 7.80664 24.3498C9.2704 24.3498 10.4822 23.8556 11.3541 23.3453C12.6418 23.9761 14.1656 24.3498 15.8053 24.3498C20.4006 24.3498 24.124 21.4729 24.124 17.9211ZM29.0032 26.7606C29.959 25.7159 30.5229 24.4422 30.5229 23.064C30.5229 20.376 28.3833 18.0737 25.3518 17.1134C25.3878 17.3786 25.4038 17.6478 25.4038 17.9211C25.4038 22.1761 21.0965 25.6355 15.8053 25.6355C15.3734 25.6355 14.9535 25.6034 14.5375 25.5592C15.7973 27.8695 18.7568 29.4928 22.2043 29.4928C23.844 29.4928 25.3678 29.1231 26.6556 28.4883C27.5274 28.9986 28.7392 29.4928 30.203 29.4928C30.331 29.4928 30.4469 29.4165 30.4949 29.2999C30.5469 29.1834 30.5229 29.0468 30.4349 28.9504C30.4229 28.9383 29.5391 27.978 29.0032 26.7606Z" fill="white"/>
<ellipse cx="32.8811" cy="6.07016" rx="5.56449" ry="5.61044" fill="#F30606"/>
<path d="M30.5286 9.63C30.7552 9.45 30.8586 9.36667 30.8386 9.38C31.4919 8.84 32.0052 8.39667 32.3786 8.05C32.7586 7.70333 33.0786 7.34 33.3386 6.96C33.5986 6.58 33.7286 6.21 33.7286 5.85C33.7286 5.57667 33.6652 5.36333 33.5386 5.21C33.4119 5.05667 33.2219 4.98 32.9686 4.98C32.7152 4.98 32.5152 5.07667 32.3686 5.27C32.2286 5.45667 32.1586 5.72333 32.1586 6.07H30.5086C30.5219 5.50333 30.6419 5.03 30.8686 4.65C31.1019 4.27 31.4052 3.99 31.7786 3.81C32.1586 3.63 32.5786 3.54 33.0386 3.54C33.8319 3.54 34.4286 3.74333 34.8286 4.15C35.2352 4.55667 35.4386 5.08667 35.4386 5.74C35.4386 6.45333 35.1952 7.11667 34.7086 7.73C34.2219 8.33667 33.6019 8.93 32.8486 9.51H35.5486V10.9H30.5286V9.63Z" fill="white"/>
</svg>
