<svg width="43" height="63" viewBox="0 0 43 63" fill="none" xmlns="http://www.w3.org/2000/svg">
<path d="M21.4275 0.312012C9.99666 0.312012 0.69751 9.54574 0.69751 20.8961C0.69751 24.3033 1.55503 27.6815 3.18627 30.6774L20.293 61.3998C20.5214 61.8099 20.955 62.0632 21.4263 62.0632C21.8987 62.0632 22.3324 61.8099 22.5595 61.3998L39.6735 30.6678C41.2987 27.6815 42.1562 24.3033 42.1562 20.8961C42.1562 9.54574 32.8571 0.312012 21.4275 0.312012ZM21.4275 31.1876C15.7127 31.1876 11.0631 26.5707 11.0631 20.8961C11.0631 15.2215 15.7127 10.6047 21.4275 10.6047C27.1423 10.6047 31.7918 15.2203 31.7918 20.8961C31.7918 26.5719 27.1423 31.1876 21.4275 31.1876Z" fill="#F7AF69"/>
<path d="M21.4272 36.6151C30.6174 36.6151 38.0675 29.2174 38.0675 20.0918C38.0675 10.9663 30.6174 3.5686 21.4272 3.5686C12.237 3.5686 4.78687 10.9663 4.78687 20.0918C4.78687 29.2174 12.237 36.6151 21.4272 36.6151Z" fill="#F7AF69"/>
<circle cx="21.544" cy="19.8953" r="9.73902" stroke="white" stroke-width="2"/>
<path d="M20.9096 14.5804C20.9284 14.6945 21.3014 16.8771 21.3014 17.7107C21.3014 18.9818 20.6265 19.8879 19.6271 20.253L19.941 26.0396C19.9585 26.3725 19.6928 26.6544 19.3574 26.6544H17.8026C17.4699 26.6544 17.2029 26.3752 17.219 26.0396L17.5329 20.253C16.5321 19.8879 15.8586 18.9791 15.8586 17.7107C15.8586 16.8744 16.2303 14.6945 16.2504 14.5804C16.3282 14.0865 17.3505 14.0798 17.4135 14.6073V18.0395C17.4457 18.1227 17.7798 18.1174 17.8026 18.0395C17.8361 17.4248 17.9944 14.6569 17.9971 14.5925C18.0776 14.0865 19.0824 14.0865 19.1602 14.5925C19.1656 14.6583 19.3212 17.4234 19.3548 18.0395C19.3762 18.1174 19.7143 18.1227 19.7438 18.0395V14.6073C19.8069 14.0824 20.8318 14.0865 20.9096 14.5804ZM23.806 21.5241L23.4411 26.0235C23.4116 26.3631 23.6813 26.6557 24.022 26.6557H25.3824C25.7057 26.6557 25.966 26.3953 25.966 26.0718V14.7939C25.966 14.4731 25.7057 14.21 25.3824 14.21C23.3781 14.2113 20.0041 18.5496 23.806 21.5241Z" fill="white"/>
<path d="M20.9096 14.5804C20.9284 14.6945 21.3014 16.8771 21.3014 17.7107C21.3014 18.9818 20.6265 19.8879 19.6271 20.253L19.941 26.0396C19.9585 26.3725 19.6928 26.6544 19.3574 26.6544H17.8026C17.4699 26.6544 17.2029 26.3752 17.219 26.0396L17.5329 20.253C16.5321 19.8879 15.8586 18.9791 15.8586 17.7107C15.8586 16.8744 16.2303 14.6945 16.2504 14.5804C16.3282 14.0865 17.3505 14.0798 17.4135 14.6073V18.0395C17.4457 18.1227 17.7798 18.1174 17.8026 18.0395C17.8361 17.4248 17.9944 14.6569 17.9971 14.5925C18.0776 14.0865 19.0824 14.0865 19.1602 14.5925C19.1656 14.6583 19.3212 17.4234 19.3548 18.0395C19.3762 18.1174 19.7143 18.1227 19.7438 18.0395V14.6073C19.8069 14.0824 20.8318 14.0865 20.9096 14.5804ZM23.806 21.5241L23.4411 26.0235C23.4116 26.3631 23.6813 26.6557 24.022 26.6557H25.3824C25.7057 26.6557 25.966 26.3953 25.966 26.0718V14.7939C25.966 14.4731 25.7057 14.21 25.3824 14.21C23.3781 14.2113 20.0041 18.5496 23.806 21.5241Z" fill="white"/>
</svg>
