<svg width="192" height="178" viewBox="0 0 192 178" fill="none" xmlns="http://www.w3.org/2000/svg">
<rect width="191.234" height="177.72" rx="10" fill="#F7AF69"/>
<path d="M119.637 56.696V50.1694C119.637 35.7678 108.573 24.0497 94.9754 24.0497C81.3777 24.0497 70.3136 35.7678 70.3136 50.1694V56.7005H51.8182V112.203C51.8182 121.22 58.719 128.529 67.2324 128.529H122.718C131.232 128.529 138.133 121.22 138.133 112.203V56.696H119.637ZM82.6466 50.1694C82.6466 42.9686 88.1765 37.1118 94.9754 37.1118C101.774 37.1118 107.304 42.9686 107.304 50.1694V56.7005H82.6424V50.1694H82.6466ZM113.471 74.653C110.916 74.653 108.845 72.4595 108.845 69.7536C108.845 67.0477 110.916 64.8542 113.471 64.8542C116.026 64.8542 118.097 67.0477 118.097 69.7536C118.097 72.464 116.026 74.653 113.471 74.653ZM76.4801 74.653C73.9252 74.653 71.8541 72.4595 71.8541 69.7536C71.8541 67.0477 73.9252 64.8542 76.4801 64.8542C79.035 64.8542 81.106 67.0477 81.106 69.7536C81.106 72.464 79.035 74.653 76.4801 74.653Z" fill="white"/>
<path d="M94.9669 79.1433C95.0263 79.5254 96.2062 86.834 96.2062 89.6253C96.2062 93.882 94.0714 96.916 90.9096 98.1386L91.9028 117.516C91.9579 118.631 91.1176 119.575 90.0566 119.575H85.1378C84.0853 119.575 83.2408 118.64 83.2917 117.516L84.2848 98.1386C81.1188 96.916 78.9883 93.873 78.9883 89.6253C78.9883 86.825 80.1639 79.5254 80.2275 79.1433C80.4737 77.4892 83.7076 77.4667 83.9071 79.2332V90.7266C84.0089 91.0053 85.0657 90.9873 85.1378 90.7266C85.2439 88.6679 85.7447 79.3995 85.7532 79.1838C86.0078 77.4892 89.1866 77.4892 89.4327 79.1838C89.4497 79.404 89.942 88.6634 90.0481 90.7266C90.116 90.9873 91.1855 91.0053 91.2789 90.7266V79.2332C91.4784 77.4757 94.7208 77.4892 94.9669 79.1433ZM104.13 102.395L102.975 117.462C102.882 118.599 103.735 119.579 104.813 119.579H109.116C110.139 119.579 110.963 118.707 110.963 117.624V79.858C110.963 78.7837 110.139 77.9027 109.116 77.9027C102.776 77.9072 92.1022 92.4346 104.13 102.395Z" fill="#F7AF69"/>
<path d="M81.2339 141.888V144.354H76.0859V147.018H79.9379V149.412H76.0859V154.524H73.0079V141.888H81.2339ZM87.4237 154.668C86.4397 154.668 85.5517 154.458 84.7597 154.038C83.9797 153.618 83.3617 153.018 82.9057 152.238C82.4617 151.458 82.2397 150.546 82.2397 149.502C82.2397 148.47 82.4677 147.564 82.9237 146.784C83.3797 145.992 84.0037 145.386 84.7957 144.966C85.5877 144.546 86.4757 144.336 87.4597 144.336C88.4437 144.336 89.3317 144.546 90.1237 144.966C90.9157 145.386 91.5397 145.992 91.9957 146.784C92.4517 147.564 92.6797 148.47 92.6797 149.502C92.6797 150.534 92.4457 151.446 91.9777 152.238C91.5217 153.018 90.8917 153.618 90.0877 154.038C89.2957 154.458 88.4077 154.668 87.4237 154.668ZM87.4237 152.004C88.0117 152.004 88.5097 151.788 88.9177 151.356C89.3377 150.924 89.5477 150.306 89.5477 149.502C89.5477 148.698 89.3437 148.08 88.9357 147.648C88.5397 147.216 88.0477 147 87.4597 147C86.8597 147 86.3617 147.216 85.9657 147.648C85.5697 148.068 85.3717 148.686 85.3717 149.502C85.3717 150.306 85.5637 150.924 85.9477 151.356C86.3437 151.788 86.8357 152.004 87.4237 152.004ZM98.8846 154.668C97.9006 154.668 97.0126 154.458 96.2206 154.038C95.4406 153.618 94.8226 153.018 94.3666 152.238C93.9226 151.458 93.7006 150.546 93.7006 149.502C93.7006 148.47 93.9286 147.564 94.3846 146.784C94.8406 145.992 95.4646 145.386 96.2566 144.966C97.0486 144.546 97.9366 144.336 98.9206 144.336C99.9046 144.336 100.793 144.546 101.585 144.966C102.377 145.386 103.001 145.992 103.457 146.784C103.913 147.564 104.141 148.47 104.141 149.502C104.141 150.534 103.907 151.446 103.439 152.238C102.983 153.018 102.353 153.618 101.549 154.038C100.757 154.458 99.8686 154.668 98.8846 154.668ZM98.8846 152.004C99.4726 152.004 99.9706 151.788 100.379 151.356C100.799 150.924 101.009 150.306 101.009 149.502C101.009 148.698 100.805 148.08 100.397 147.648C100.001 147.216 99.5086 147 98.9206 147C98.3206 147 97.8226 147.216 97.4266 147.648C97.0306 148.068 96.8326 148.686 96.8326 149.502C96.8326 150.306 97.0246 150.924 97.4086 151.356C97.8046 151.788 98.2966 152.004 98.8846 152.004ZM105.162 149.484C105.162 148.452 105.354 147.546 105.738 146.766C106.134 145.986 106.668 145.386 107.34 144.966C108.012 144.546 108.762 144.336 109.59 144.336C110.25 144.336 110.85 144.474 111.39 144.75C111.942 145.026 112.374 145.398 112.686 145.866V141.204H115.764V154.524H112.686V153.084C112.398 153.564 111.984 153.948 111.444 154.236C110.916 154.524 110.298 154.668 109.59 154.668C108.762 154.668 108.012 154.458 107.34 154.038C106.668 153.606 106.134 153 105.738 152.22C105.354 151.428 105.162 150.516 105.162 149.484ZM112.686 149.502C112.686 148.734 112.47 148.128 112.038 147.684C111.618 147.24 111.102 147.018 110.49 147.018C109.878 147.018 109.356 147.24 108.924 147.684C108.504 148.116 108.294 148.716 108.294 149.484C108.294 150.252 108.504 150.864 108.924 151.32C109.356 151.764 109.878 151.986 110.49 151.986C111.102 151.986 111.618 151.764 112.038 151.32C112.47 150.876 112.686 150.27 112.686 149.502Z" fill="white"/>
</svg>
