<svg width="43" height="48" viewBox="0 0 43 48" fill="none" xmlns="http://www.w3.org/2000/svg">
<path d="M34.6688 20.08C33.4504 13.18 28.0217 8 21.5 8C16.3221 8 11.825 11.28 9.58542 16.08C4.1925 16.72 0 21.82 0 28C0 34.62 4.81958 40 10.75 40H34.0417C38.9867 40 43 35.52 43 30C43 24.72 39.3271 20.44 34.6688 20.08Z" fill="#FFB067"/>
<path d="M22.2312 17.1428C18.1121 17.1428 14.772 20.9809 14.772 25.7143H12.2856L15.5097 29.419L15.5677 29.5523L18.916 25.7143H16.4296C16.4296 22.0285 19.0238 19.0476 22.2312 19.0476C25.4387 19.0476 28.0328 22.0285 28.0328 25.7143C28.0328 29.4 25.4387 32.3809 22.2312 32.3809C20.6316 32.3809 19.9603 32.9809 18.916 31.7714H16.9601C18.311 33.3238 20.1675 34.2857 22.2312 34.2857C26.3503 34.2857 29.6904 30.4476 29.6904 25.7143C29.6904 20.9809 26.3503 17.1428 22.2312 17.1428Z" fill="white"/>
</svg>
