<svg width="52" height="52" viewBox="0 0 52 52" fill="none" xmlns="http://www.w3.org/2000/svg">
<path d="M43.0011 19.4855C41.5264 19.45 40.0747 19.1126 38.7356 18.4939C37.3965 17.8753 36.1985 16.9887 35.2155 15.8889C35.7432 18.1336 35.4367 20.4937 34.3533 22.5292C33.2698 24.5648 31.4833 26.137 29.3265 26.953C27.1698 27.769 24.79 27.7731 22.6304 26.9645C20.4709 26.1559 18.679 24.5898 17.5886 22.558C16.4982 20.5261 16.1836 18.1672 16.7035 15.9206C17.2235 13.674 18.5424 11.6931 20.4146 10.3469C22.2868 9.00071 24.5846 8.38106 26.8797 8.60342C29.1749 8.82578 31.311 9.87498 32.89 11.5555C32.2519 9.24079 32.4096 6.77884 33.3378 4.56442C30.7516 3.3154 27.8908 2.74309 25.0231 2.90106C22.1555 3.05903 19.3748 3.94212 16.9415 5.46765C14.5081 6.99317 12.5017 9.11124 11.1101 11.6235C9.71841 14.1358 8.98704 16.9602 8.98444 19.8322C8.98444 26.5778 12.7689 32.2255 15.5422 36.3422L16.0478 37.0933C18.8071 41.0924 21.7671 44.9492 24.9167 48.6489L26.0144 49.9344L27.1122 48.6489C30.2613 44.9489 33.2214 41.0921 35.9811 37.0933L36.4867 36.3278C39.2455 32.2111 43.03 26.5778 43.03 19.8322C43.0155 19.7166 43.0011 19.6011 43.0011 19.4855Z" fill="#D65F5F"/>
<path d="M26 23.3566C28.9756 23.3566 31.3878 20.9444 31.3878 17.9688C31.3878 14.9932 28.9756 12.5811 26 12.5811C23.0244 12.5811 20.6122 14.9932 20.6122 17.9688C20.6122 20.9444 23.0244 23.3566 26 23.3566Z" fill="#F7AF69"/>
<path d="M43.3333 15.8889C47.322 15.8889 50.5555 12.6554 50.5555 8.66668C50.5555 4.67796 47.322 1.44446 43.3333 1.44446C39.3446 1.44446 36.1111 4.67796 36.1111 8.66668C36.1111 12.6554 39.3446 15.8889 43.3333 15.8889Z" fill="#5FD680"/>
</svg>
