<svg width="45" height="66" viewBox="0 0 45 66" fill="none" xmlns="http://www.w3.org/2000/svg">
<path d="M22.0023 0C9.86992 0 0 9.80049 0 21.8476C0 25.4639 0.910157 29.0494 2.64152 32.2292L20.7983 64.8373C21.0406 65.2726 21.5009 65.5414 22.0011 65.5414C22.5025 65.5414 22.9628 65.2726 23.2039 64.8373L41.3683 32.219C43.0932 29.0494 44.0034 25.4639 44.0034 21.8476C44.0034 9.80049 34.1335 0 22.0023 0ZM22.0023 32.7707C15.9368 32.7707 11.0018 27.8705 11.0018 21.8476C11.0018 15.8247 15.9368 10.9244 22.0023 10.9244C28.0679 10.9244 33.0029 15.8234 33.0029 21.8476C33.0029 27.8717 28.0679 32.7707 22.0023 32.7707Z" fill="#68ADEC"/>
<path d="M22.0023 38.5314C31.7565 38.5314 39.6639 30.6796 39.6639 20.994C39.6639 11.3083 31.7565 3.45654 22.0023 3.45654C12.248 3.45654 4.34058 11.3083 4.34058 20.994C4.34058 30.6796 12.248 38.5314 22.0023 38.5314Z" fill="#68ADEC"/>
<circle cx="22.1098" cy="20.8463" r="9.73902" stroke="white" stroke-width="2"/>
<path d="M25.1492 18.8828V18.162C25.1492 16.572 23.8745 15.2782 22.3079 15.2782C20.7413 15.2782 19.4666 16.572 19.4666 18.162V18.8828H17.3368V25.0104C17.3368 26.006 18.1316 26.8127 19.1125 26.8127H25.5046C26.4855 26.8127 27.2803 26.006 27.2803 25.0104V18.8828H25.1492ZM20.8876 18.1613C20.8876 17.3663 21.5246 16.7198 22.3079 16.7198C23.0912 16.7198 23.7282 17.3663 23.7282 18.1613V18.8821H20.887V18.1613H20.8876ZM24.439 20.8648C24.1446 20.8648 23.9066 20.6226 23.9066 20.3243C23.9066 20.0261 24.1452 19.7839 24.439 19.7839C24.7335 19.7839 24.9715 20.0261 24.9715 20.3243C24.9715 20.6226 24.7335 20.8648 24.439 20.8648ZM20.1774 20.8648C19.883 20.8648 19.645 20.6226 19.645 20.3243C19.645 20.0261 19.8836 19.7839 20.1774 19.7839C20.4713 19.7839 20.7099 20.0261 20.7099 20.3243C20.7099 20.6226 20.4719 20.8648 20.1774 20.8648Z" fill="white"/>
</svg>
