<svg width="58" height="65" viewBox="0 0 58 65" fill="none" xmlns="http://www.w3.org/2000/svg">
<path d="M44.989 20.1997V16.1842C44.989 7.32377 37.7434 0.114258 28.8386 0.114258C19.9338 0.114258 12.6883 7.32377 12.6883 16.1842V20.2024H0.576172V54.3501C0.576172 59.8976 5.09527 64.3942 10.6705 64.3942H47.0067C52.582 64.3942 57.1011 59.8976 57.1011 54.3501V20.1997H44.989ZM20.7648 16.1842C20.7648 11.754 24.3862 8.15063 28.8386 8.15063C33.291 8.15063 36.9124 11.754 36.9124 16.1842V20.2024H20.762V16.1842H20.7648ZM40.9507 31.2476C39.2776 31.2476 37.9213 29.8981 37.9213 28.2333C37.9213 26.5685 39.2776 25.2189 40.9507 25.2189C42.6238 25.2189 43.9801 26.5685 43.9801 28.2333C43.9801 29.9008 42.6238 31.2476 40.9507 31.2476ZM16.7265 31.2476C15.0534 31.2476 13.6971 29.8981 13.6971 28.2333C13.6971 26.5685 15.0534 25.2189 16.7265 25.2189C18.3997 25.2189 19.7559 26.5685 19.7559 28.2333C19.7559 29.9008 18.3997 31.2476 16.7265 31.2476Z" fill="#68ADEC"/>
</svg>
