<svg width="43" height="62" viewBox="0 0 43 62" fill="none" xmlns="http://www.w3.org/2000/svg">
<path d="M21.4982 0.692871C10.177 0.692871 0.966919 9.83811 0.966919 21.0797C0.966919 24.4543 1.81622 27.8001 3.43183 30.7673L20.3746 61.1953C20.6008 61.6014 21.0303 61.8523 21.497 61.8523C21.965 61.8523 22.3944 61.6014 22.6194 61.1953L39.5694 30.7577C41.179 27.8001 42.0283 24.4543 42.0283 21.0797C42.0283 9.83811 32.8183 0.692871 21.4982 0.692871ZM21.4982 31.2726C15.8382 31.2726 11.2332 26.6999 11.2332 21.0797C11.2332 15.4595 15.8382 10.8869 21.4982 10.8869C27.1582 10.8869 31.7633 15.4583 31.7633 21.0797C31.7633 26.7011 27.1582 31.2726 21.4982 31.2726Z" fill="#D65F5F"/>
<path d="M21.4981 36.6478C30.6002 36.6478 37.9789 29.321 37.9789 20.2829C37.9789 11.2448 30.6002 3.91797 21.4981 3.91797C12.3959 3.91797 5.01721 11.2448 5.01721 20.2829C5.01721 29.321 12.3959 36.6478 21.4981 36.6478Z" fill="#D65F5F"/>
<circle cx="22.1926" cy="20.2756" r="9.73902" stroke="white" stroke-width="2"/>
<path d="M26.7847 18.9491V21.3188C26.7847 21.5366 26.6068 21.7135 26.3902 21.7135H23.6261V24.4791C23.6261 24.6958 23.4494 24.8738 23.2316 24.8738H20.8632C20.6455 24.8738 20.4687 24.6946 20.4687 24.4791V21.7135H17.7058C17.4881 21.7135 17.3113 21.5366 17.3113 21.3188V18.9491C17.3113 18.7312 17.4881 18.5544 17.7058 18.5544H20.4687V15.7888C20.4687 15.5721 20.6455 15.394 20.8632 15.394H23.2316C23.4494 15.394 23.6261 15.5733 23.6261 15.7888V18.5544H26.3902C26.6068 18.5532 26.7847 18.7301 26.7847 18.9491Z" fill="white"/>
</svg>
