<svg width="58" height="65" viewBox="0 0 58 65" fill="none" xmlns="http://www.w3.org/2000/svg">
<path d="M44.989 20.2946V16.2792C44.989 7.41873 37.7434 0.209229 28.8386 0.209229C19.9338 0.209229 12.6883 7.41873 12.6883 16.2792V20.2974H0.576172V54.445C0.576172 59.9925 5.09527 64.4891 10.6705 64.4891H47.0067C52.582 64.4891 57.1011 59.9925 57.1011 54.445V20.2946H44.989ZM20.7648 16.2792C20.7648 11.849 24.3862 8.24559 28.8386 8.24559C33.291 8.24559 36.9124 11.849 36.9124 16.2792V20.2974H20.762V16.2792H20.7648ZM40.9507 31.3425C39.2776 31.3425 37.9213 29.993 37.9213 28.3282C37.9213 26.6634 39.2776 25.3139 40.9507 25.3139C42.6238 25.3139 43.9801 26.6634 43.9801 28.3282C43.9801 29.9958 42.6238 31.3425 40.9507 31.3425ZM16.7265 31.3425C15.0534 31.3425 13.6971 29.993 13.6971 28.3282C13.6971 26.6634 15.0534 25.3139 16.7265 25.3139C18.3997 25.3139 19.7559 26.6634 19.7559 28.3282C19.7559 29.9958 18.3997 31.3425 16.7265 31.3425Z" fill="#D65F5F"/>
<path d="M38.4745 43.3855V48.4188C38.4745 48.8816 38.1322 49.2573 37.7157 49.2573H32.3995V55.1316C32.3995 55.5919 32.0595 55.9701 31.6407 55.9701H27.0856C26.6668 55.9701 26.3268 55.5895 26.3268 55.1316V49.2573H21.013C20.5941 49.2573 20.2542 48.8816 20.2542 48.4188V43.3855C20.2542 42.9227 20.5941 42.547 21.013 42.547H26.3268V36.6727C26.3268 36.2124 26.6668 35.8342 27.0856 35.8342H31.6407C32.0595 35.8342 32.3995 36.2149 32.3995 36.6727V42.547H37.7157C38.1322 42.5445 38.4745 42.9202 38.4745 43.3855Z" fill="white"/>
</svg>
