<svg width="40" height="41" viewBox="0 0 40 41" fill="none" xmlns="http://www.w3.org/2000/svg">
<path d="M20 41C31.0457 41 40 31.8218 40 20.5C40 9.17816 31.0457 0 20 0C8.9543 0 0 9.17816 0 20.5C0 31.8218 8.9543 41 20 41Z" fill="#68ADEC"/>
<path d="M7.21313 20.836C7.21313 24.3944 9.56706 26.8852 12.9298 26.8852C18.6465 26.8852 21.673 14.7869 27.3897 14.7869C30.7524 14.7869 33.4426 17.2777 33.4426 20.836C33.4426 24.3944 30.7524 26.8852 27.3897 26.8852C21.673 26.8852 18.6465 14.7869 12.9298 14.7869C9.56706 14.7869 7.21313 17.2777 7.21313 20.836Z" stroke="white" stroke-width="4" stroke-miterlimit="10" stroke-linecap="square"/>
</svg>
