<svg width="58" height="65" viewBox="0 0 58 65" fill="none" xmlns="http://www.w3.org/2000/svg">
<path d="M44.989 20.3897V16.3743C44.989 7.51382 37.7434 0.304321 28.8386 0.304321C19.9338 0.304321 12.6883 7.51382 12.6883 16.3743V20.3925H0.576172V54.5401C0.576172 60.0876 5.09527 64.5842 10.6705 64.5842H47.0067C52.582 64.5842 57.1011 60.0876 57.1011 54.5401V20.3897H44.989ZM20.7648 16.3743C20.7648 11.9441 24.3862 8.34069 28.8386 8.34069C33.291 8.34069 36.9124 11.9441 36.9124 16.3743V20.3925H20.762V16.3743H20.7648ZM40.9507 31.4376C39.2776 31.4376 37.9213 30.0881 37.9213 28.4233C37.9213 26.7585 39.2776 25.409 40.9507 25.409C42.6238 25.409 43.9801 26.7585 43.9801 28.4233C43.9801 30.0909 42.6238 31.4376 40.9507 31.4376ZM16.7265 31.4376C15.0534 31.4376 13.6971 30.0881 13.6971 28.4233C13.6971 26.7585 15.0534 25.409 16.7265 25.409C18.3997 25.409 19.7559 26.7585 19.7559 28.4233C19.7559 30.0909 18.3997 31.4376 16.7265 31.4376Z" fill="#5FD680"/>
<path d="M38.5898 44.0625L37.0943 38.8977C36.8773 38.1457 36.46 37.4916 35.9017 37.0282C35.3434 36.5648 34.6724 36.3158 33.9841 36.3165H24.0161C23.3278 36.3158 22.6568 36.5648 22.0984 37.0282C21.5401 37.4916 21.1228 38.1457 20.9059 38.8977L19.4103 44.0625C19.0127 44.2541 18.673 44.5767 18.4342 44.9899C18.1953 45.403 18.0679 45.8882 18.0679 46.3845V52.6769C18.0679 53.6057 18.5095 54.4086 19.1611 54.8453V57.7109C19.1611 58.0447 19.2763 58.3648 19.4813 58.6008C19.6863 58.8368 19.9644 58.9694 20.2543 58.9694H21.3475C21.6375 58.9694 21.9155 58.8368 22.1206 58.6008C22.3256 58.3648 22.4408 58.0447 22.4408 57.7109V55.1939H35.5594V57.7109C35.5594 58.0447 35.6746 58.3648 35.8796 58.6008C36.0846 58.8368 36.3627 58.9694 36.6526 58.9694H37.7458C38.0358 58.9694 38.3139 58.8368 38.5189 58.6008C38.7239 58.3648 38.8391 58.0447 38.8391 57.7109V54.8453C39.1707 54.6263 39.4464 54.3106 39.6383 53.9299C39.8303 53.5493 39.9317 53.1171 39.9323 52.6769V46.3845C39.9323 45.8882 39.8048 45.403 39.566 44.9899C39.3271 44.5767 38.9875 44.2541 38.5898 44.0625ZM24.0161 38.8335H33.983C34.4542 38.8335 34.8718 39.1783 35.0204 39.6943L36.2295 43.8675H21.7706L22.9786 39.6943C23.0512 39.4436 23.1904 39.2256 23.3766 39.0711C23.5628 38.9166 23.7865 38.8334 24.0161 38.8335ZM21.8941 51.4184C21.6787 51.4183 21.4654 51.3694 21.2664 51.2744C21.0674 51.1795 20.8867 51.0403 20.7344 50.8649C20.5821 50.6895 20.4613 50.4813 20.379 50.2521C20.2966 50.023 20.2542 49.7774 20.2543 49.5294C20.2544 49.2815 20.2969 49.0359 20.3794 48.8068C20.4619 48.5778 20.5828 48.3696 20.7352 48.1943C20.8875 48.019 21.0684 47.88 21.2674 47.7852C21.4665 47.6904 21.6798 47.6416 21.8952 47.6417C22.3303 47.6419 22.7475 47.841 23.055 48.1952C23.3625 48.5495 23.5352 49.0299 23.5351 49.5307C23.5349 50.0315 23.362 50.5118 23.0542 50.8658C22.7465 51.2198 22.3292 51.4186 21.8941 51.4184ZM36.106 51.4184C35.8906 51.4183 35.6773 51.3694 35.4783 51.2744C35.2793 51.1795 35.0985 51.0403 34.9463 50.8649C34.794 50.6895 34.6732 50.4813 34.5908 50.2521C34.5085 50.023 34.4661 49.7774 34.4662 49.5294C34.4663 49.2815 34.5088 49.0359 34.5913 48.8068C34.6738 48.5778 34.7947 48.3696 34.947 48.1943C35.0994 48.019 35.2803 47.88 35.4793 47.7852C35.6784 47.6904 35.8917 47.6416 36.1071 47.6417C36.5422 47.6419 36.9593 47.841 37.2669 48.1952C37.5744 48.5495 37.7471 49.0299 37.7469 49.5307C37.7468 50.0315 37.5738 50.5118 37.2661 50.8658C36.9584 51.2198 36.5411 51.4186 36.106 51.4184Z" fill="white"/>
</svg>
