<svg width="43" height="62" viewBox="0 0 43 62" fill="none" xmlns="http://www.w3.org/2000/svg">
<path d="M21.5631 0.619629C10.1839 0.619629 0.926758 9.68778 0.926758 20.8347C0.926758 24.1807 1.78041 27.4984 3.40428 30.4405L20.4338 60.6121C20.6611 61.0148 21.0928 61.2635 21.5619 61.2635C22.0323 61.2635 22.4639 61.0148 22.69 60.6121L39.7268 30.4311C41.3446 27.4984 42.1983 24.1807 42.1983 20.8347C42.1983 9.68778 32.9411 0.619629 21.5631 0.619629ZM21.5631 30.9416C15.8741 30.9416 11.2455 26.4075 11.2455 20.8347C11.2455 15.2618 15.8741 10.7277 21.5631 10.7277C27.2521 10.7277 31.8807 15.2606 31.8807 20.8347C31.8807 26.4087 27.2521 30.9416 21.5631 30.9416Z" fill="#5FD680"/>
<path d="M21.563 36.2716C30.7117 36.2716 38.1282 29.0065 38.1282 20.0446C38.1282 11.0827 30.7117 3.81763 21.563 3.81763C12.4143 3.81763 4.9978 11.0827 4.9978 20.0446C4.9978 29.0065 12.4143 36.2716 21.563 36.2716Z" fill="#5FD680"/>
<path d="M28.609 18.6056L27.5071 14.9326C27.3472 14.3978 27.0398 13.9326 26.6284 13.6031C26.217 13.2735 25.7226 13.0964 25.2154 13.0969H17.8709C17.3637 13.0964 16.8693 13.2735 16.4579 13.6031C16.0466 13.9326 15.7391 14.3978 15.5792 14.9326L14.4773 18.6056C14.1843 18.7419 13.9341 18.9713 13.7581 19.2651C13.5821 19.5589 13.4882 19.904 13.4882 20.2569V24.7319C13.4882 25.3924 13.8136 25.9634 14.2937 26.274V28.3119C14.2937 28.5493 14.3785 28.7769 14.5296 28.9448C14.6806 29.1126 14.8855 29.2069 15.0992 29.2069H15.9047C16.1183 29.2069 16.3232 29.1126 16.4742 28.9448C16.6253 28.7769 16.7102 28.5493 16.7102 28.3119V26.5219H26.3762V28.3119C26.3762 28.5493 26.461 28.7769 26.6121 28.9448C26.7631 29.1126 26.968 29.2069 27.1817 29.2069H27.9872C28.2008 29.2069 28.4057 29.1126 28.5567 28.9448C28.7078 28.7769 28.7927 28.5493 28.7927 28.3119V26.274C29.037 26.1183 29.2402 25.8938 29.3816 25.623C29.523 25.3523 29.5977 25.0449 29.5982 24.7319V20.2569C29.5982 19.904 29.5043 19.5589 29.3283 19.2651C29.1523 18.9713 28.902 18.7419 28.609 18.6056ZM17.8709 14.8869H25.2146C25.5618 14.8869 25.8695 15.1322 25.9791 15.4991L26.8699 18.4669H16.2164L17.1065 15.4991C17.1599 15.3208 17.2625 15.1657 17.3997 15.0559C17.5369 14.946 17.7018 14.8869 17.8709 14.8869ZM16.3074 23.8369C16.1487 23.8369 15.9915 23.8021 15.8449 23.7345C15.6983 23.667 15.5651 23.568 15.4529 23.4433C15.3407 23.3185 15.2517 23.1704 15.191 23.0075C15.1303 22.8445 15.0991 22.6699 15.0992 22.4935C15.0992 22.3172 15.1305 22.1426 15.1913 21.9796C15.2521 21.8167 15.3412 21.6687 15.4535 21.5441C15.5657 21.4194 15.699 21.3205 15.8457 21.2531C15.9923 21.1856 16.1495 21.151 16.3082 21.151C16.6288 21.1511 16.9362 21.2928 17.1627 21.5447C17.3893 21.7966 17.5166 22.1383 17.5165 22.4944C17.5164 22.8506 17.3889 23.1921 17.1622 23.4439C16.9354 23.6957 16.628 23.837 16.3074 23.8369ZM26.7789 23.8369C26.6202 23.8369 26.463 23.8021 26.3164 23.7345C26.1698 23.667 26.0366 23.568 25.9244 23.4433C25.8122 23.3185 25.7232 23.1704 25.6625 23.0075C25.6018 22.8445 25.5706 22.6699 25.5707 22.4935C25.5707 22.3172 25.602 22.1426 25.6628 21.9796C25.7236 21.8167 25.8127 21.6687 25.925 21.5441C26.0372 21.4194 26.1705 21.3205 26.3172 21.2531C26.4638 21.1856 26.621 21.151 26.7797 21.151C27.1003 21.1511 27.4077 21.2928 27.6342 21.5447C27.8608 21.7966 27.9881 22.1383 27.988 22.4944C27.9879 22.8506 27.8604 23.1921 27.6337 23.4439C27.4069 23.6957 27.0995 23.837 26.7789 23.8369Z" fill="white"/>
</svg>
